<?xml version="1.0" standalone="no"?>
<!DOCTYPE svg PUBLIC "-//W3C//DTD SVG 20010904//EN"
 "http://www.w3.org/TR/2001/REC-SVG-20010904/DTD/svg10.dtd">
<svg version="1.0" xmlns="http://www.w3.org/2000/svg"
 width="641.000000pt" height="628.000000pt" viewBox="0 0 641.000000 628.000000"
 preserveAspectRatio="xMidYMid meet">

<g transform="translate(0.000000,628.000000) scale(0.100000,-0.100000)"
fill="#000000" stroke="none">
<path d="M0 3140 l0 -3140 3205 0 3205 0 0 3140 0 3140 -3205 0 -3205 0 0
-3140z m1671 1000 c235 -24 538 -104 765 -203 228 -99 465 -252 620 -399 l104
-100 0 -444 c0 -244 -3 -444 -8 -444 -4 0 -34 24 -67 53 -219 189 -397 299
-665 405 -333 132 -657 187 -1059 180 l-228 -4 20 46 c18 39 164 423 304 798
53 141 32 130 214 112z m3235 -110 c23 -63 72 -194 109 -290 37 -96 96 -256
131 -354 36 -99 70 -186 76 -194 10 -12 3 -13 -47 -6 -152 21 -514 3 -731 -36
-281 -52 -602 -167 -826 -297 -97 -56 -276 -186 -348 -253 -35 -33 -65 -60
-67 -60 -2 0 -3 202 -3 448 l0 449 68 64 c195 187 411 327 679 442 285 122
666 210 877 203 l39 -1 43 -115z m-3561 -87 c-4 -16 -74 -209 -157 -431 -83
-221 -149 -404 -147 -406 2 -3 78 0 169 4 430 22 871 -55 1250 -219 100 -44
306 -162 390 -224 69 -51 85 -67 40 -38 -196 122 -464 234 -726 301 -342 88
-698 109 -1034 60 -164 -24 -224 -38 -246 -56 -17 -14 -14 -15 39 -9 108 12
519 6 657 -9 332 -37 694 -125 954 -233 160 -66 426 -203 394 -203 -4 0 -51
21 -105 46 -273 128 -671 240 -1038 293 -297 42 -628 49 -913 20 -57 -6 -106
-9 -108 -6 -3 3 9 36 26 73 67 144 413 964 443 1047 5 13 18 17 63 17 l56 0
-7 -27z m3871 -198 c197 -476 345 -824 371 -870 l26 -48 -54 7 c-120 15 -432
26 -554 21 -407 -19 -654 -60 -1033 -170 -144 -43 -354 -121 -439 -163 -64
-33 -94 -37 -48 -7 224 146 669 298 1075 369 192 33 552 60 670 50 25 -2 106
-5 180 -8 120 -3 131 -2 104 10 -66 28 -359 67 -589 80 -277 14 -675 -52 -975
-161 -122 -45 -382 -167 -467 -220 -24 -14 -43 -24 -43 -20 0 3 55 42 122 86
444 293 1039 447 1593 410 87 -5 161 -8 164 -6 2 3 -26 85 -62 182 -37 98
-105 284 -151 413 -47 129 -88 243 -92 253 -6 16 -1 18 52 15 l59 -3 91 -220z
m-4176 -59 c0 -14 -323 -756 -404 -929 l-46 -98 48 6 c252 29 671 33 936 10
399 -37 707 -99 1047 -214 191 -64 399 -156 457 -202 19 -15 40 -19 98 -19 68
0 79 3 137 39 182 111 639 266 962 326 197 36 393 62 572 75 187 14 675 8 822
-10 51 -6 95 -9 97 -7 2 2 -48 118 -112 258 -64 140 -133 295 -154 344 -36 84
-164 384 -177 413 -4 10 7 12 48 10 l53 -3 55 -125 c30 -69 117 -249 192 -400
121 -245 188 -373 313 -602 43 -81 53 -77 -132 -49 -408 63 -971 67 -1382 10
-485 -68 -980 -225 -1134 -360 l-50 -44 -106 0 -106 0 -50 44 c-96 85 -366
196 -644 266 -405 101 -800 142 -1270 132 -280 -6 -415 -17 -623 -51 -75 -12
-139 -21 -141 -19 -2 3 28 61 67 131 143 257 409 796 506 1025 l20 47 51 0
c27 0 50 -2 50 -4z"/>
<path d="M2730 3486 c47 -32 88 -60 93 -62 4 -3 7 -3 7 -1 0 7 -146 106 -167
113 -10 4 20 -19 67 -50z"/>
<path d="M2570 3307 c13 -13 199 -133 194 -126 -10 17 -108 86 -154 109 -25
12 -43 20 -40 17z"/>
<path d="M3559 3451 c-37 -27 -70 -54 -74 -61 -4 -6 25 12 64 41 62 45 90 69
79 69 -2 0 -33 -22 -69 -49z"/>
<path d="M3753 3291 c-51 -28 -153 -99 -153 -106 0 -4 190 114 205 126 16 15
2 10 -52 -20z"/>
</g>
</svg>
